<svg width="12" height="12" viewBox="0 0 12 12" fill="none" xmlns="http://www.w3.org/2000/svg">
<path d="M0.00815462 11.7342C0.0179546 11.7182 0.263349 11.3282 0.553468 10.8679L1.08096 10.031L1.39078 9.7192L1.7006 9.4073L1.4395 9.1416C1.2959 8.9954 1.16482 8.8499 1.14821 8.8182C1.09842 8.7232 1.10721 8.5324 1.1657 8.439C1.19383 8.394 1.69431 7.8803 2.27787 7.2974L3.33889 6.2376L2.93132 5.824C2.576 5.4635 2.52042 5.3969 2.4977 5.3044C2.45429 5.1277 2.51926 4.9127 2.6462 4.8128C2.79045 4.6993 3.03509 4.6881 3.18234 4.7878C3.22402 4.8158 4.2182 5.7979 5.39163 6.9694L7.52514 9.0995L9.21048 7.4141L10.8958 5.7286L10.4601 5.2925L10.0244 4.8563L9.71187 5.1682L9.39931 5.4801L9.60522 5.687L9.81112 5.8939L8.72714 6.978L7.64316 8.0622L7.01236 7.4318L6.38156 6.8013L7.46584 5.717L8.55013 4.6327L8.80978 4.8915L9.06942 5.1504L9.38151 4.8383L9.69359 4.5262L8.93949 3.7718C8.52473 3.3569 8.17486 3.0174 8.16199 3.0174C8.14913 3.0174 8.00323 3.1525 7.83776 3.3176L7.53692 3.6178L7.74886 3.8306L7.9608 4.0434L6.87655 5.1275L5.79229 6.2116L5.16178 5.5811L4.53127 4.9506L5.61537 3.8663L6.69946 2.782L6.94761 3.0294C7.08409 3.1654 7.20636 3.2768 7.21931 3.2768C7.24928 3.2768 7.81971 2.7061 7.81971 2.6761C7.81971 2.6641 7.6454 2.4783 7.43235 2.264C7.21931 2.0495 7.03367 1.8443 7.01981 1.8077C6.98444 1.7147 6.98847 1.5291 7.02791 1.4349C7.10793 1.244 7.34947 1.132 7.56778 1.1847C7.65599 1.2057 7.81338 1.3551 9.05069 2.5891C9.81201 3.3485 10.4405 3.9641 10.4474 3.9573C10.4543 3.9473 10.4821 3.8603 10.5092 3.7581C10.5791 3.4939 10.5954 2.9898 10.5442 2.678C10.4242 1.9467 10.0979 1.4623 9.4715 1.0854C9.21727 0.932501 9.16362 0.607101 9.35642 0.387501C9.44689 0.284501 9.55922 0.235701 9.70608 0.235701C10.005 0.235701 10.6189 0.7104 10.9407 1.1904C11.3181 1.7534 11.4973 2.3789 11.4972 3.1318C11.497 3.6972 11.3996 4.1609 11.2061 4.5183L11.1273 4.6636L11.5261 5.0605C11.7454 5.2788 11.9417 5.4892 11.9623 5.5281C12.0138 5.6251 12.0123 5.8377 11.9593 5.9406C11.9018 6.0523 7.85575 10.1038 7.74316 10.1624C7.63221 10.2204 7.45901 10.2254 7.3364 10.1744C7.26918 10.1464 7.0102 9.9037 6.43451 9.3291L5.62692 8.523L4.57216 9.5743C3.99204 10.1526 3.48558 10.6469 3.44668 10.6729C3.34982 10.7379 3.21915 10.7579 3.10049 10.7259C3.02028 10.7049 2.93938 10.6379 2.68068 10.3837L2.36023 10.0683L2.06658 10.3628L1.77292 10.6574L0.896954 11.2109C0.415173 11.5152 0.0140817 11.7643 0.00564169 11.7643C-0.00275831 11.7643 -0.00165837 11.7513 0.00814163 11.7353L0.00815462 11.7342Z" fill="white"/>
</svg>
